<svg width="108" height="88" viewBox="0 0 108 88" fill="none" xmlns="http://www.w3.org/2000/svg">
<path d="M2.09549 3.01945C8.43926 3.01945 20.6415 -0.0645905 23.1496 7.73848C27.1332 20.1317 28.9047 33.1153 34.7657 44.8373C37.7071 50.7201 41.7262 55.5773 46.8537 59.8293C52.2594 64.3121 60.4775 69.4366 67.4359 70.8283C73.0257 71.9462 78.0276 73.8642 83.8073 74.2042C89.0859 74.5147 94.1607 76.2007 99.4527 76.2007" stroke="white" stroke-width="3" stroke-linecap="round"/>
<path d="M98.1459 68.3599C99.6018 68.5055 100.793 69.5383 102.066 70.1749C103.216 70.7497 106.693 70.9502 105.624 71.6632C102.903 73.4768 100.397 76.3936 98.5452 79.0684C96.8212 81.5586 93.5426 83.447 92.2653 86.0018" stroke="white" stroke-width="3" stroke-linecap="round"/>
</svg>
