<svg width="209" height="120" viewBox="0 0 209 120" fill="none" xmlns="http://www.w3.org/2000/svg">
<path d="M94.0485 83.6963C94.0485 86.5221 94.0485 89.348 94.0485 92.1738C94.0485 94.6348 94.1406 97.2977 93.8779 99.767C93.7874 100.618 93.821 101.483 93.821 102.338C93.821 104.603 93.0251 106.8 93.0251 109.053" stroke="white" stroke-width="3" stroke-linecap="round"/>
<path d="M91.6959 19V58.2079" stroke="white" stroke-width="3" stroke-linecap="round"/>
<path d="M85.8615 68.232C85.8615 70.3924 86.2035 73.0194 88.3631 74.1195C90.3767 75.1453 92.6248 75.4864 94.8697 75.5093C96.6213 75.5272 98.0835 75.0749 99.715 74.4922C100.398 74.2483 101.83 73.8197 102.324 73.1846C103.235 72.0127 103.145 70.7457 103.145 69.369" stroke="white" stroke-width="3" stroke-linecap="round"/>
<path d="M91.3195 67.2086C91.8943 67.2086 92.2195 67.1144 92.7409 66.8738C92.8854 66.807 93.4678 66.3373 93.2273 66.0968C92.8806 65.7501 91.8082 65.9733 91.5533 66.3558C91.4705 66.4799 91.2924 67.1492 91.4332 66.8674" stroke="white" stroke-width="3" stroke-linecap="round"/>
<path d="M99.1653 65.7304C98.9678 65.7551 99.1773 67.9001 100.587 66.9243C101.137 66.5431 101.563 65.9083 100.764 65.4587C100.257 65.1735 99.6159 65.2755 99.0516 65.2755" stroke="white" stroke-width="3" stroke-linecap="round"/>
<path d="M91.7743 58.5667C90.3263 58.5667 88.5327 58.263 87.2323 59.0279C85.5913 59.9932 84.4304 61.8557 83.3789 63.3804C83.0428 63.8676 83.094 64.4384 82.9935 65.0102C82.7712 66.2757 82.438 67.5473 82.3429 68.8321C82.2693 69.8255 82.3808 70.835 82.5576 71.8074C82.5911 71.9915 82.7259 72.0905 82.7661 72.2875C82.9951 73.4097 83.1195 74.5442 83.461 75.6419C83.6013 76.0929 83.6779 76.282 84.0043 76.6085C85.1637 77.7679 86.4257 78.8133 87.8009 79.7102C89.4784 80.8042 91.312 81.7992 93.1388 82.6224C94.1969 83.0992 95.3399 83.5674 96.4932 83.7468C98.7573 84.099 101.244 84.228 103.531 84.0248C105.16 83.8799 106.578 82.079 107.466 80.8788C108.985 78.8265 110.12 77.0733 110.536 74.5112C110.627 73.9524 110.877 73.3687 110.877 72.8055C110.877 71.9737 110.945 71.1248 111.079 70.304C111.228 69.397 111.125 68.3676 111.098 67.4549C111.079 66.7862 111.05 65.999 110.625 65.4524C109.457 63.9515 108.409 62.4556 106.898 61.2326C106.156 60.6327 105.254 60.2003 104.446 59.6975C103.232 58.9409 102.19 58.1032 100.871 57.5181C99.9205 57.0964 99.0503 56.7139 98.0472 56.4631C97.3533 56.2896 96.5644 56.689 95.9057 56.8611C94.5226 57.2225 93.0425 57.3897 91.6859 57.8213C91.4546 57.8949 91.3195 57.8418 91.3195 58.1119" stroke="white" stroke-width="3" stroke-linecap="round"/>
<path d="M89.955 105.756C90.5368 106.443 90.9547 107.285 91.4901 108.011C91.945 108.628 92.4654 109.17 92.9746 109.735C93.2366 110.027 93.2791 110.646 93.7074 110.847C93.8727 110.925 93.8201 110.585 93.8274 110.512C93.9313 109.474 94.9816 108.534 95.6025 107.79C97.0494 106.057 98.5609 104.37 99.974 102.61C100.367 102.12 100.654 101.538 101.098 101.094" stroke="white" stroke-width="3" stroke-linecap="round"/>
<path d="M110.846 64.2183C120.304 57.6263 128.09 48.3451 136.438 40.4337C139.556 37.4785 143.312 34.5056 145.143 30.5394C146.362 27.8984 148.949 25.133 148.949 22.1434C148.949 19.757 148.949 12.5979 148.949 14.9843" stroke="white" stroke-width="3" stroke-linecap="round"/>
<path d="M82.5897 76.6338C77.0321 76.6338 71.4744 76.6338 65.9168 76.6338C59.4673 76.6338 53.3475 77.9441 47.0556 79.2025C36.2591 81.3618 26.0877 87.4353 18.0385 94.9479C16.6954 96.2015 15.6485 98.5819 14.7562 100.204C13.8833 101.791 12.8573 103.279 12.8059 105.08C12.7638 106.554 12.3778 107.93 12.3778 109.433C12.3778 110.947 11.0888 115.595 11.0934 115.593" stroke="white" stroke-width="3" stroke-linecap="round"/>
<path d="M5.09967 111.312C6.54769 111.915 7.81044 115.593 9.16683 115.593C9.99901 115.593 13.2015 117.697 13.6383 118.352C13.6386 118.352 13.6226 117.569 13.7572 117.401C14.5047 116.466 15.3414 115.743 16.4211 115.165C19.0025 113.783 21.3204 112.031 23.8419 110.551C24.3469 110.254 25.6479 110.027 24.7933 109.599" stroke="white" stroke-width="3" stroke-linecap="round"/>
<path d="M82.1616 62.5058C75.3355 62.5058 68.1909 63.0739 61.3977 62.2679C55.7217 61.5945 51.0406 59.2465 45.7713 57.1543C34.3936 52.6367 23.3195 48.2848 13.6859 40.4575C11.7576 38.8908 11.4227 36.4112 10.2372 34.3449C9.0592 32.2919 8.37092 30.327 7.33544 28.256C5.84376 25.2727 3.57521 22.6383 2.10284 19.6936" stroke="white" stroke-width="3" stroke-linecap="round"/>
<path d="M111.274 74.4932C117.638 74.4932 123.949 77.6368 130.206 78.7744C137.868 80.1674 145.598 81.0341 153.23 82.6275C163.061 84.6801 172.978 86.6951 182.128 90.7618C183.873 91.5376 185.303 92.953 186.718 94.1868C188.014 95.3164 190.03 96.2718 190.904 97.802C191.746 99.2751 193.62 100.882 193.925 102.559C194.304 104.643 195.708 106.146 196.066 108.291C196.345 109.966 197.326 111.663 197.326 113.452" stroke="white" stroke-width="3" stroke-linecap="round"/>
<path d="M196.47 115.593C192.922 115.593 189.111 112.138 186.267 110.289C185.912 110.058 183.948 108.315 184.483 108.315" stroke="white" stroke-width="3" stroke-linecap="round"/>
<path d="M196.726 116.505C196.868 115.368 208.695 108.323 206.609 107.28" stroke="white" stroke-width="3" stroke-linecap="round"/>
<path d="M2.11707 19.822C2.11707 17.5989 2.11707 15.3758 2.11707 13.1526C2.11707 12.4652 2.13349 11.8276 2.46041 11.2041C3.38289 9.44498 5.02612 8.29931 6.59769 7.16128C9.51801 5.04656 12.8871 3.01952 16.5203 2.51757C18.9641 2.17994 21.3583 1.59055 23.8335 1.59055C24.4614 1.59055 24.7532 2.05659 24.9837 2.51757" stroke="white" stroke-width="3" stroke-linecap="round"/>
</svg>
