<svg width="130" height="109" viewBox="0 0 130 109" fill="none" xmlns="http://www.w3.org/2000/svg">
<path d="M2.36429 106.712C8.00362 106.712 13.7581 107.051 19.3891 106.675C25.0671 106.297 33.5183 106.199 38.3015 102.646C43.2131 98.9975 47.5635 94.7949 50.3895 89.3602C55.8206 78.9157 58.1863 67.0147 63.4576 56.4722C67.8314 47.7246 72.6832 37.793 78.9578 30.2635C83.5258 24.7819 89.8609 20.0776 95.1477 15.2715C103.048 8.08909 114.831 10.0079 124.551 10.0079" stroke="white" stroke-width="3" stroke-linecap="round"/>
<path d="M120.63 2.16708C120.898 3.37226 123.017 6.07173 124.188 6.74091C126.031 7.79404 130.913 12.6215 126.838 12.6215C122.119 12.6215 119.324 13.1284 119.324 18.5022" stroke="white" stroke-width="3" stroke-linecap="round"/>
</svg>
