<svg width="33" height="96" viewBox="0 0 33 96" fill="none" xmlns="http://www.w3.org/2000/svg">
<path d="M14.0547 66.7214C14.0547 69.5473 14.0547 72.3732 14.0547 75.199C14.0547 77.6599 14.1469 80.3229 13.8842 82.7922C13.7936 83.6434 13.8273 84.508 13.8273 85.3633C13.8273 87.6281 13.0314 89.8247 13.0314 92.0784" stroke="white" stroke-width="3" stroke-linecap="round"/>
<path d="M11.7021 2.02518V41.2331" stroke="white" stroke-width="3" stroke-linecap="round"/>
<path d="M5.8678 51.2571C5.8678 53.4176 6.2098 56.0445 8.36938 57.1447C10.383 58.1705 12.6311 58.5116 14.876 58.5345C16.6276 58.5523 18.0898 58.1001 19.7213 57.5174C20.4043 57.2735 21.8363 56.8449 22.3302 56.2098C23.2417 55.0378 23.1515 53.7709 23.1515 52.3942" stroke="white" stroke-width="3" stroke-linecap="round"/>
<path d="M11.3258 50.2338C11.9006 50.2338 12.2257 50.1396 12.7472 49.8989C12.8917 49.8322 13.4741 49.3625 13.2336 49.1219C12.8869 48.7752 11.8145 48.9985 11.5595 49.3809C11.4768 49.5051 11.2987 50.1743 11.4395 49.8926" stroke="white" stroke-width="3" stroke-linecap="round"/>
<path d="M19.1716 48.7555C18.974 48.7802 19.1835 50.9252 20.593 49.9495C21.1436 49.5683 21.5692 48.9335 20.7699 48.4839C20.2628 48.1987 19.6222 48.3007 19.0579 48.3007" stroke="white" stroke-width="3" stroke-linecap="round"/>
<path d="M11.7806 41.5919C10.3326 41.5919 8.53896 41.2882 7.23861 42.0531C5.59758 43.0184 4.43666 44.8809 3.38516 46.4056C3.04912 46.8928 3.10028 47.4635 2.99982 48.0354C2.77749 49.3009 2.44432 50.5724 2.34915 51.8572C2.27557 52.8506 2.38713 53.8602 2.56393 54.8326C2.59739 55.0166 2.73218 55.1156 2.7724 55.3127C3.00141 56.4349 3.12578 57.5694 3.46728 58.6671C3.60758 59.1181 3.68415 59.3072 4.01056 59.6336C5.17 60.7931 6.43198 61.8385 7.80715 62.7353C9.48468 63.8294 11.3183 64.8243 13.1451 65.6475C14.2032 66.1243 15.3462 66.5926 16.4995 66.772C18.7636 67.1242 21.2499 67.2532 23.5368 67.0499C25.1667 66.9051 26.5842 65.1042 27.4724 63.904C28.9911 61.8517 30.1264 60.0984 30.5425 57.5363C30.6332 56.9776 30.8836 56.3939 30.8836 55.8307C30.8836 54.9989 30.9518 54.1499 31.0858 53.3291C31.2338 52.4221 31.1308 51.3927 31.1047 50.4801C31.0856 49.8114 31.0561 49.0242 30.6309 48.4776C29.4636 46.9767 28.4156 45.4807 26.9038 44.2577C26.1623 43.6579 25.2599 43.2254 24.4528 42.7227C23.2382 41.9661 22.1961 41.1284 20.8773 40.5433C19.9268 40.1216 19.0566 39.7391 18.0535 39.4883C17.3595 39.3148 16.5707 39.7142 15.912 39.8863C14.5289 40.2477 13.0487 40.4149 11.6922 40.8465C11.4609 40.9201 11.3258 40.867 11.3258 41.1371" stroke="white" stroke-width="3" stroke-linecap="round"/>
<path d="M9.9613 88.7809C10.5431 89.4684 10.961 90.3102 11.4964 91.0361C11.9513 91.653 12.4717 92.1949 12.9809 92.7607C13.2429 93.0518 13.2854 93.6709 13.7137 93.8725C13.879 93.9503 13.8264 93.6105 13.8337 93.5377C13.9376 92.4989 14.9878 91.5588 15.6088 90.815C17.0557 89.0818 18.5672 87.3955 19.9803 85.6349C20.3736 85.1449 20.6602 84.5634 21.1047 84.1188" stroke="white" stroke-width="3" stroke-linecap="round"/>
</svg>
