<svg width="32" height="30" viewBox="0 0 32 30" fill="none" xmlns="http://www.w3.org/2000/svg">
<path d="M3.27112 9.49023V20.1614" stroke="white" stroke-width="3" stroke-linecap="round"/>
<path d="M2.30096 9.49028C2.30096 7.26312 3.11887 2.43123 5.48075 1.75641C7.51164 1.17615 9.09169 2.11651 9.09169 4.15472C9.09169 5.87355 9.61888 8.28119 7.87906 9.24776C7.20054 9.62471 3.11417 12.3713 5.21127 11.3227C6.82696 10.5149 8.91087 9.58484 10.7894 10.0023C12.4505 10.3714 14.0366 14.6755 13.9422 16.281C13.8203 18.3531 4.38628 21.6166 2.78602 21.6166" stroke="white" stroke-width="3" stroke-linecap="round"/>
<path d="M17.8227 8.52014C17.8227 10.0292 17.5272 16.4052 19.7629 16.281C21.3808 16.1911 22.4344 12.8578 24.3709 12.4275C25.5487 12.1658 25.0984 8.43 25.0984 9.9753C25.0984 11.0712 25.0984 12.167 25.0984 13.2629C25.0984 15.7295 25.98 17.147 26.7422 19.4338C27.342 21.2332 28.0683 25.0393 26.7692 26.7096C25.9228 27.7978 23.1949 27.8432 22.2959 26.8443C20.3042 24.6312 21.4038 22.1206 23.4008 20.4309C25.1286 18.9688 28.2354 18.7062 30.434 18.7062" stroke="white" stroke-width="3" stroke-linecap="round"/>
</svg>
