<svg version="1.1" id="Layer_1" xmlns="http://www.w3.org/2000/svg" xmlns:xlink="http://www.w3.org/1999/xlink" x="0px" y="0px"
	 width="100%" viewBox="0 0 320 320" enable-background="new 0 0 320 320" xml:space="preserve">

<path fill="#F8F8F8" opacity="1.000000" stroke="none" 
	d="
M265.230743,179.000626 
	C265.230774,192.164856 265.249207,204.829086 265.224487,217.493256 
	C265.207733,226.068542 262.331604,229.028641 253.957230,229.030350 
	C191.969254,229.042938 129.981277,229.043076 67.993309,229.029999 
	C59.790855,229.028275 56.785595,226.077423 56.780254,217.943710 
	C56.755299,179.951096 56.754833,141.958435 56.781055,103.965836 
	C56.786499,96.079262 59.835381,92.979698 67.586662,92.974190 
	C129.907883,92.929924 192.229095,92.907463 254.550323,92.897278 
	C261.982422,92.896065 265.198090,96.050056 265.212311,103.514969 
	C265.259827,128.510101 265.230591,153.505386 265.230743,179.000626 
M77.245018,217.980072 
	C76.093567,218.991394 74.942123,220.002731 73.101768,221.619125 
	C132.823654,222.382202 191.446655,223.131256 250.069656,223.880295 
	C250.149170,223.571396 250.228683,223.262497 250.308197,222.953583 
	C247.891418,221.278229 245.474640,219.602859 242.641708,217.399780 
	C220.289001,201.162918 197.936310,184.926071 175.332520,168.506821 
	C171.457428,171.484818 167.589539,174.339661 163.857254,177.361969 
	C160.763153,179.867523 157.885544,179.766510 154.860535,177.298767 
	C151.293915,174.389175 147.648651,171.576019 144.024185,168.710526 
	C121.704559,185.302307 99.800713,201.585007 77.245018,217.980072 
M84.037842,103.890411 
	C82.649734,103.953949 81.261635,104.017494 78.918976,104.124725 
	C106.286728,125.851486 132.819824,146.915634 159.405441,168.021469 
	C187.014481,146.582214 214.402237,125.314789 241.996735,103.886833 
	C189.266510,103.886833 137.092026,103.886833 84.037842,103.890411 
M230.841721,125.319420 
	C215.251022,137.430649 199.660339,149.541870 183.593903,162.022659 
	C207.441589,179.359650 230.859650,196.384308 254.747833,213.750748 
	C254.747833,177.732727 254.747833,142.530487 254.747833,106.756500 
	C246.616653,113.081108 239.018372,118.991211 230.841721,125.319420 
M66.842072,171.499939 
	C66.842072,185.151001 66.842072,198.802063 66.842072,213.300598 
	C90.374512,195.904816 112.918663,179.239609 135.913406,162.241318 
	C112.835396,143.933823 90.168724,125.952644 66.842072,107.447906 
	C66.842072,129.238266 66.842072,149.869080 66.842072,171.499939 
z"/>
<path fill="#030303" opacity="1.000000" stroke="none" 
	d="
M84.477692,103.888626 
	C137.092026,103.886833 189.266510,103.886833 241.996735,103.886833 
	C214.402237,125.314789 187.014481,146.582214 159.405441,168.021469 
	C132.819824,146.915634 106.286728,125.851486 78.918976,104.124725 
	C81.261635,104.017494 82.649734,103.953949 84.477692,103.888626 
z"/>
<path fill="#020202" opacity="1.000000" stroke="none" 
	d="
M77.896866,217.867706 
	C99.800713,201.585007 121.704559,185.302307 144.024185,168.710526 
	C147.648651,171.576019 151.293915,174.389175 154.860535,177.298767 
	C157.885544,179.766510 160.763153,179.867523 163.857254,177.361969 
	C167.589539,174.339661 171.457428,171.484818 175.332520,168.506821 
	C197.936310,184.926071 220.289001,201.162918 242.590027,218.005463 
	C241.562332,218.750565 240.586349,219.011612 239.610291,219.011993 
	C187.056580,219.031998 134.502869,219.038742 81.949234,218.981720 
	C80.598045,218.980240 79.247643,218.255264 77.896866,217.867706 
z"/>
<path fill="#020202" opacity="1.000000" stroke="none" 
	d="
M231.130905,125.110367 
	C239.018372,118.991211 246.616653,113.081108 254.747833,106.756500 
	C254.747833,142.530487 254.747833,177.732727 254.747833,213.750748 
	C230.859650,196.384308 207.441589,179.359650 183.593903,162.022659 
	C199.660339,149.541870 215.251022,137.430649 231.130905,125.110367 
z"/>
<path fill="#020202" opacity="1.000000" stroke="none" 
	d="
M66.842072,170.999924 
	C66.842072,149.869080 66.842072,129.238266 66.842072,107.447906 
	C90.168724,125.952644 112.835396,143.933823 135.913406,162.241318 
	C112.918663,179.239609 90.374512,195.904816 66.842072,213.300598 
	C66.842072,198.802063 66.842072,185.151001 66.842072,170.999924 
z"/>
<path fill="#484848" opacity="1.000000" stroke="none" 
	d="
M77.570938,217.923889 
	C79.247643,218.255264 80.598045,218.980240 81.949234,218.981720 
	C134.502869,219.038742 187.056580,219.031998 239.610291,219.011993 
	C240.586349,219.011612 241.562332,218.750565 242.798096,218.269318 
	C245.474640,219.602859 247.891418,221.278229 250.308197,222.953583 
	C250.228683,223.262497 250.149170,223.571396 250.069656,223.880295 
	C191.446655,223.131256 132.823654,222.382202 73.101768,221.619125 
	C74.942123,220.002731 76.093567,218.991394 77.570938,217.923889 
z"/>
</svg>
