<svg version="1.1" id="Layer_1" xmlns="http://www.w3.org/2000/svg" xmlns:xlink="http://www.w3.org/1999/xlink" x="0px" y="0px"
	 width="100%" viewBox="0 0 1920 1280" enable-background="new 0 0 1920 1280" xml:space="preserve">
<path fill="none" opacity="1.000000" stroke="#ffffff" stroke-linecap="round" stroke-linejoin="round" stroke-width="5.000000"
	d="
M478.500000,1094.500000 
	C487.000000,1095.017578 495.480530,1095.150879 504.009399,1094.665161 
	C507.510040,1094.465942 511.045105,1096.266968 514.539734,1097.374634 
	C526.292053,1101.099609 536.742493,1107.742188 548.423767,1111.723633 
	C557.690796,1114.882324 566.890564,1116.231934 576.499817,1115.993408 
	C579.833984,1115.910767 583.277161,1116.181274 585.935669,1118.089600 
	C590.323120,1121.238892 592.882935,1125.493896 590.818115,1131.074585 
	C592.387573,1132.174438 593.955200,1131.996460 595.500000,1132.003296 
	C632.333313,1132.165527 669.166626,1132.452637 706.000000,1132.476929 
	C806.833313,1132.543579 907.669189,1132.053345 1008.499329,1132.622559 
	C1114.334229,1133.219971 1220.168457,1132.435791 1325.999023,1133.140137 
	C1360.667114,1133.370728 1395.339233,1132.920410 1429.998657,1133.569092 
	C1475.333862,1134.417725 1520.671875,1133.403687 1565.998047,1134.125732 
	C1587.502563,1134.468262 1609.009766,1133.931641 1630.497681,1134.577271 
	C1656.834839,1135.368408 1683.167358,1134.712158 1709.500000,1134.997192 
	C1726.333252,1135.179321 1743.180542,1134.968994 1759.995728,1135.612549 
	C1774.005737,1136.148804 1788.000488,1135.775635 1802.000244,1135.986572 
	C1816.999268,1136.212524 1832.015015,1135.977783 1846.995361,1136.610596 
	C1859.339355,1137.131958 1871.669312,1136.690308 1883.999512,1137.017578 
	C1893.168579,1137.260986 1902.332275,1137.704224 1911.501221,1137.957886 
	C1912.813477,1137.994141 1914.278076,1138.557983 1915.500000,1137.500000 
"/>
<path fill="none" opacity="1.000000" stroke="#ffffff" stroke-linecap="round" stroke-linejoin="round" stroke-width="4.000000"
	d="
M539.500000,302.500000 
	C539.913025,301.120087 538.366394,300.300079 539.622437,298.185181 
	C543.820190,295.137817 548.720154,295.822235 555.013916,300.983032 
	C568.395447,311.955719 579.257141,325.205109 589.478577,339.015869 
	C600.251648,353.571991 608.960876,369.323792 615.982605,386.007324 
	C616.942261,388.287476 617.869629,390.616791 618.457947,393.010315 
	C619.704407,398.082184 619.238220,402.699371 613.994873,405.490326 
	C610.988159,407.090729 610.832275,409.376312 611.420410,412.514923 
	C614.195862,427.327301 617.816345,441.973694 619.564941,456.992432 
	C621.740723,475.680237 619.996582,493.969635 614.978455,511.994019 
	C608.586060,534.954346 610.986389,557.657837 617.825623,579.899902 
	C619.373230,584.933105 619.324219,590.154846 621.365173,595.056152 
	C623.294617,599.689636 625.505188,604.354736 626.000000,609.500000 
"/>
<path fill="none" opacity="1.000000" stroke="#ffffff" stroke-linecap="round" stroke-linejoin="round" stroke-width="4.000000"
	d="
M483.999969,919.500000 
	C485.666626,921.166687 487.333313,922.833374 488.758148,924.258179 
	C488.143616,931.783020 482.875702,937.338928 481.380554,944.474976 
	C479.773315,952.145691 479.426331,959.707703 479.912415,967.505432 
	C481.045105,985.676880 481.428223,1003.867920 479.008453,1022.001099 
	C475.905243,1045.255737 468.601746,1067.288330 460.128998,1089.050171 
	C457.697845,1095.294678 456.591522,1102.071289 457.461609,1109.004761 
	C459.073578,1121.849976 469.806427,1132.098389 483.985718,1129.907471 
	C502.353424,1127.069458 520.422546,1129.070312 538.495911,1132.024902 
	C545.315063,1133.139648 551.957947,1135.320801 559.001648,1135.042480 
	C561.677734,1134.936768 564.164185,1134.726318 566.000000,1132.500000 
"/>
<path fill="none" opacity="1.000000" stroke="#ffffff" stroke-linecap="round" stroke-linejoin="round" stroke-width="4.000000"
	d="
M362.500000,482.000000 
	C361.996857,479.025940 364.309326,477.638977 366.018982,476.020020 
	C377.148682,465.480988 388.531067,455.201050 399.456360,444.455627 
	C418.612793,425.614685 437.630249,406.627960 456.460785,387.461487 
	C472.981781,370.645844 489.275085,353.602356 505.458496,336.460815 
	C514.853394,326.509644 523.833496,316.166809 532.999939,305.999908 
	C536.626221,301.977844 538.492371,301.973969 543.015198,305.480408 
	C552.176697,312.583069 559.090454,321.748657 566.618835,330.396545 
	C570.413025,334.754944 574.950989,338.341034 578.083984,343.448486 
	C591.801392,365.810944 599.432861,390.200867 602.978333,416.002991 
	C604.846375,429.598236 605.696167,443.264008 606.130554,456.995880 
	C606.526245,469.504120 606.777100,482.017212 606.368103,494.495667 
	C605.898010,508.837524 605.829407,523.175171 606.095520,537.498230 
	C606.506104,559.593262 607.830688,581.659302 611.584900,603.485413 
	C612.080994,606.369324 611.712524,609.173767 612.000000,612.000000 
"/>
<path fill="none" opacity="1.000000" stroke="#ffffff" stroke-linecap="round" stroke-linejoin="round" stroke-width="4.000000"
	d="
M568.000000,333.500000 
	C567.750061,335.839722 568.288574,337.961884 569.484436,340.009064 
	C582.406067,362.129639 589.211060,386.279724 591.827332,411.517914 
	C593.354736,426.252960 593.043396,441.119995 592.195068,456.011108 
	C590.972412,477.474060 589.059509,498.969696 590.062805,520.497070 
	C591.357910,548.283203 595.054688,575.743469 603.043640,602.486938 
	C603.889648,605.318787 604.003723,608.127014 604.000000,611.000000 
"/>
<path fill="none" opacity="1.000000" stroke="#ffffff" stroke-linecap="round" stroke-linejoin="round" stroke-width="4.000000"
	d="
M254.500000,568.000000 
	C257.608063,563.781006 254.606094,560.476562 252.417084,557.562256 
	C245.696655,548.615112 235.807709,545.880249 225.533981,547.254089 
	C214.512589,548.727844 204.133148,546.676880 193.489212,545.071594 
	C172.944412,541.973206 152.421356,540.763611 131.982483,546.436890 
	C116.466728,550.743652 102.856743,558.129333 92.621460,570.599670 
	C86.954636,577.503967 86.642227,583.512024 95.113602,589.848145 
	C106.239700,598.169678 117.596031,606.216064 129.402649,613.654480 
	C142.687775,622.024414 156.222855,629.654114 170.996216,635.010437 
	C171.692245,635.262817 172.333862,635.958374 172.999924,635.957153 
	C187.733154,635.929810 199.610474,644.331970 212.430923,649.666016 
	C228.498306,656.351196 244.751984,662.017456 262.005280,664.462830 
	C271.206696,665.766907 279.807892,669.001038 288.500000,672.000000 
"/>
<path fill="none" opacity="1.000000" stroke="#ffffff" stroke-linecap="round" stroke-linejoin="round" stroke-width="4.000000"
	d="
M485.000000,937.500000 
	C486.811462,938.917053 486.865936,941.120483 486.933258,943.002380 
	C488.145294,976.877258 487.747894,1010.669922 480.474091,1043.994385 
	C476.767181,1060.977051 471.926697,1077.640137 466.101929,1094.036255 
	C464.478973,1098.604614 463.667328,1103.427246 465.391846,1108.536499 
	C467.928680,1116.052246 472.822723,1119.596313 480.491730,1117.961182 
	C491.550385,1115.603394 502.646027,1113.665283 513.999329,1114.020752 
	C526.862854,1114.423584 539.414307,1117.104736 552.001831,1119.490234 
	C553.586914,1119.790649 554.447205,1121.007324 555.500000,1122.000000 
"/>
<path fill="none" opacity="1.000000" stroke="#ffffff" stroke-linecap="round" stroke-linejoin="round" stroke-width="4.000000"
	d="
M622.500000,638.500000 
	C625.958313,637.194397 626.816223,634.841797 627.877441,631.107239 
	C630.019531,623.569092 625.967346,617.041260 627.209473,609.090149 
	C623.523926,610.597107 620.502197,610.374451 617.502380,610.542603 
	C610.679138,610.924988 607.929321,614.654419 608.551392,622.996155 
	C608.955261,628.413025 608.921021,633.638000 607.748901,639.053833 
	C607.104126,642.033142 607.324036,645.375305 606.531921,648.508057 
	C606.209167,649.784607 605.950317,650.960022 605.028564,652.024719 
	C602.302734,655.173340 599.845398,658.150024 601.800781,663.079041 
	C602.810791,665.624817 600.515625,668.619812 598.951050,670.967407 
	C581.174133,697.641602 577.902588,726.456665 586.002808,756.999268 
	C589.319153,769.503784 592.625793,782.011108 596.010315,794.497192 
	C600.272827,810.221985 599.630127,826.101562 597.471802,841.996155 
	C594.962036,860.479980 591.159668,878.657837 584.049805,896.020386 
	C583.032410,898.504883 582.515503,901.136658 579.500000,902.000000 
"/>
<path fill="none" opacity="1.000000" stroke="#ffffff" stroke-linecap="round" stroke-linejoin="round" stroke-width="4.000000"
	d="
M275.000000,1051.500000 
	C277.261353,1050.453613 278.090027,1052.551025 279.519226,1053.470093 
	C287.240631,1058.436035 291.158417,1065.791016 293.400452,1074.446777 
	C289.352203,1074.985107 289.370117,1074.956787 285.496155,1072.506104 
	C278.139282,1067.852051 274.640961,1060.920410 274.101196,1052.493530 
	C273.946503,1050.078369 273.419189,1049.242310 271.008575,1048.932983 
	C265.647736,1048.245361 260.337708,1047.686401 254.998978,1048.995850 
	C247.019470,1050.953003 239.920914,1047.041504 232.517166,1045.421509 
	C221.902023,1043.098755 212.243027,1038.090454 202.539368,1033.418213 
	C194.953461,1029.765625 186.576004,1028.636597 178.925812,1025.163452 
	C175.493881,1023.605225 172.356812,1021.621460 169.011337,1019.976929 
	C162.822784,1016.934814 156.468155,1015.027100 149.500702,1016.503357 
	C138.993622,1018.729370 133.772751,1027.191772 135.522980,1039.496704 
	C137.421570,1052.844482 139.435059,1066.176758 141.524368,1079.496216 
	C142.775665,1087.473145 141.661133,1095.495972 142.387238,1103.510254 
	C143.675720,1117.731323 149.747742,1127.739990 164.487595,1131.055176 
	C165.582153,1131.301392 166.500000,1132.333374 167.500000,1133.000000 
"/>
<path fill="none" opacity="1.000000" stroke="#ffffff" stroke-linecap="round" stroke-linejoin="round" stroke-width="4.000000"
	d="
M622.500000,664.000000 
	C623.087830,669.626343 619.763184,674.102600 617.938293,678.976929 
	C613.156799,691.748657 608.091431,704.417053 606.007751,718.001160 
	C603.876526,731.895447 606.693115,745.206299 610.415527,758.523621 
	C614.049805,771.525696 618.707336,784.353455 619.467102,798.001831 
	C620.484192,816.271240 618.623047,834.251953 614.075867,852.019409 
	C611.202698,863.246094 606.964111,873.840149 601.394836,883.927612 
	C609.217590,889.314148 611.562744,900.369690 605.315186,909.371704 
	C595.859985,922.995605 584.617615,935.315674 570.863342,944.801819 
	C567.513855,947.111938 563.105347,949.113098 562.346069,952.575867 
	C561.321045,957.250427 559.272705,961.300293 557.431335,965.469666 
	C547.668884,987.574036 536.306702,1008.901489 525.576172,1030.537842 
	C517.566101,1046.688843 509.264557,1062.755249 504.897827,1080.474854 
	C503.741852,1085.165527 504.661804,1089.904297 503.500000,1094.500000 
"/>
<path fill="none" opacity="1.000000" stroke="#ffffff" stroke-linecap="round" stroke-linejoin="round" stroke-width="4.000000"
	d="
M366.000000,939.500000 
	C367.096619,941.217896 367.233185,943.072449 366.747681,944.999390 
	C361.893494,964.266113 359.747559,984.030151 356.000092,1003.500000 
	C351.415833,1027.317383 348.820221,1051.507080 342.518616,1075.005005 
	C339.672913,1085.616211 336.302307,1096.284790 328.800354,1104.313477 
	C321.419281,1112.212769 314.048889,1120.807007 303.902618,1125.279053 
	C298.328094,1127.736206 291.531525,1127.365479 285.525940,1126.347046 
	C257.845154,1121.652954 232.646103,1110.978027 210.503860,1093.495117 
	C201.380402,1086.291504 193.119186,1078.218262 185.976044,1069.018555 
	C185.099197,1067.889282 184.098679,1066.728516 182.500000,1066.500000 
"/>
<path fill="none" opacity="1.000000" stroke="#ffffff" stroke-linecap="round" stroke-linejoin="round" stroke-width="5.000000"
	d="
M167.500000,1134.000000 
	C162.645569,1137.086548 157.067688,1135.765747 151.998581,1135.802124 
	C105.167648,1136.137573 58.333324,1135.991699 11.500031,1136.034180 
	C9.843466,1136.035645 8.077463,1135.441284 6.500000,1136.500000 
"/>
<path fill="none" opacity="1.000000" stroke="#ffffff" stroke-linecap="round" stroke-linejoin="round" stroke-width="4.000000"
	d="
M381.000000,822.000000 
	C375.605103,824.067322 369.936371,823.245178 364.511078,822.848633 
	C352.657990,821.982361 341.040466,819.677307 329.422516,816.814453 
	C319.801422,814.443542 309.501038,814.820435 299.499054,814.011719 
	C297.680786,813.864807 295.772400,814.392273 295.112305,816.044861 
	C294.525024,817.515198 295.257355,819.153931 296.463196,820.532166 
	C298.803772,823.207397 300.929321,826.070679 303.318542,829.075684 
	C299.116302,833.606262 296.932739,840.340759 295.463257,847.492432 
	C289.203552,877.957214 281.473083,908.010559 270.049957,937.019653 
	C269.023499,939.626404 267.212952,941.452026 265.565704,943.551514 
	C262.288818,947.728027 259.223114,952.105530 260.977936,958.006531 
	C262.495331,963.109070 263.841003,964.163330 269.000366,964.012451 
	C274.075409,963.864014 278.832245,961.408569 284.000000,962.000000 
"/>
<path fill="none" opacity="1.000000" stroke="#ffffff" stroke-linecap="round" stroke-linejoin="round" stroke-width="4.000000"
	d="
M304.500000,956.500000 
	C305.551666,959.620117 305.099854,962.855713 304.942169,965.997070 
	C303.959564,985.574463 305.825958,1004.894958 310.034576,1023.992371 
	C312.491943,1035.143066 316.638977,1045.773315 320.415924,1056.529541 
	C326.016846,1072.480103 327.692657,1088.704712 321.477783,1104.991577 
	C320.841949,1106.657837 321.089600,1108.325684 321.000000,1110.000000 
"/>
<path fill="none" opacity="1.000000" stroke="#ffffff" stroke-linecap="round" stroke-linejoin="round" stroke-width="4.000000"
	d="
M472.000000,815.500000 
	C461.589844,820.744080 450.165100,820.595703 438.994049,821.419312 
	C425.352386,822.425110 411.670715,822.977173 397.996155,823.363647 
	C395.614197,823.430969 393.669067,824.957642 390.953522,824.157837 
	C386.491028,822.843445 382.299500,823.039429 378.634949,818.281128 
	C374.771179,813.264099 368.343384,810.061523 363.505615,805.494080 
	C340.263306,783.550354 326.214447,756.575134 319.450500,725.510803 
	C316.591858,712.381958 313.145111,699.374146 305.480103,688.013428 
	C301.755920,682.493713 297.812592,677.125671 291.000000,675.000000 
"/>
<path fill="none" opacity="1.000000" stroke="#ffffff" stroke-linecap="round" stroke-linejoin="round" stroke-width="4.000000"
	d="
M278.000000,669.500000 
	C276.651672,678.694214 277.982422,687.859924 278.593628,696.993713 
	C279.604706,712.102722 281.508057,727.107971 284.369568,742.025024 
	C286.685974,754.100525 290.779388,765.234253 297.472992,775.517578 
	C304.276855,785.970093 307.718628,797.432861 306.988068,809.999329 
	C306.910217,811.337769 306.666687,812.666687 306.500000,814.000000 
"/>
<path fill="none" opacity="1.000000" stroke="#ffffff" stroke-linecap="round" stroke-linejoin="round" stroke-width="4.000000"
	d="
M278.500000,623.500000 
	C276.705841,627.625610 279.823761,630.731567 281.163361,633.931580 
	C284.520844,641.951904 286.956390,650.234497 289.462738,658.511292 
	C289.892822,659.931519 290.031311,661.508057 289.970703,662.998779 
	C288.817841,691.363464 295.311859,718.677429 301.573517,745.983154 
	C305.340088,762.408203 309.928955,778.643188 313.951355,795.011963 
	C315.487579,801.263367 317.759949,806.901672 322.976593,811.029602 
	C324.399597,812.155579 325.821686,813.452209 326.000000,815.500000 
"/>
<path fill="none" opacity="1.000000" stroke="#ffffff" stroke-linecap="round" stroke-linejoin="round" stroke-width="5.000000"
	d="
M609.500000,614.000000 
	C603.791809,609.860413 596.846375,610.818726 590.470154,609.664917 
	C585.115356,608.695984 579.500854,609.086487 573.999695,609.028503 
	C570.395813,608.990479 567.002563,609.575562 563.395630,610.649353 
	C559.001404,611.957520 553.832092,610.695740 549.000305,610.493225 
	C541.665894,610.185852 534.333740,609.823059 526.999939,609.501953 
	C507.833527,608.662720 488.667511,607.812378 469.499207,607.019348 
	C466.048279,606.876526 462.568634,606.938416 460.500000,610.500000 
"/>
<path fill="none" opacity="1.000000" stroke="#ffffff" stroke-linecap="round" stroke-linejoin="round" stroke-width="4.000000"
	d="
M301.000000,1127.000000 
	C299.789124,1131.340820 295.611603,1131.321777 292.466827,1132.403564 
	C285.066040,1134.949829 277.240479,1135.383911 269.499573,1135.437744 
	C245.167419,1135.606812 220.832809,1135.412598 196.500336,1135.555908 
	C189.676422,1135.596069 183.137177,1134.110352 176.485962,1133.091675 
	C173.905350,1132.696411 171.166672,1133.333374 168.500000,1133.500000 
"/>
<path fill="none" opacity="1.000000" stroke="#ffffff" stroke-linecap="round" stroke-linejoin="round" stroke-width="4.000000"
	d="
M565.500000,608.000000 
	C563.162048,605.228027 559.736145,606.331970 556.989990,606.160278 
	C533.804993,604.710938 510.640747,603.057251 487.494354,601.065491 
	C475.993134,600.075806 464.495117,598.782471 452.990936,598.170105 
	C436.903290,597.313660 421.034302,594.607910 404.989899,593.673706 
	C404.038422,593.618286 403.609985,593.382141 403.000824,592.998718 
	C399.780029,590.971558 397.277222,591.553223 395.492706,594.996216 
	C394.225037,597.442017 392.143097,599.146851 389.490936,599.408142 
	C386.725891,599.680664 386.331146,602.007751 385.608795,603.550903 
	C381.973602,611.316895 368.753357,614.704346 361.996796,610.004639 
	C359.699982,608.407043 356.952393,608.418274 356.147614,611.045227 
	C354.472382,616.513550 351.009705,620.047119 345.972321,621.925781 
	C339.964325,624.166382 333.987457,622.328064 327.983765,621.077942 
	C321.842102,619.799072 316.955292,616.054138 311.584991,613.332336 
	C309.024200,612.034424 307.661407,608.380127 308.193451,605.536194 
	C308.765594,602.477783 308.200531,598.670593 311.500000,596.500000 
"/>
<path fill="none" opacity="1.000000" stroke="#ffffff" stroke-linecap="round" stroke-linejoin="round" stroke-width="4.000000"
	d="
M285.500000,591.500000 
	C305.964355,625.560547 325.901215,659.946411 348.023102,692.984558 
	C349.479797,695.160034 351.387146,697.079834 350.000000,700.000000 
"/>
<path fill="none" opacity="1.000000" stroke="#ffffff" stroke-linecap="round" stroke-linejoin="round" stroke-width="4.000000"
	d="
M432.000000,651.000000 
	C430.294037,651.272827 429.741547,652.639771 429.533722,654.005127 
	C428.622253,659.993225 427.797607,665.995361 427.016541,672.002136 
	C426.674133,674.635498 428.316437,675.342468 430.494720,674.969177 
	C433.682037,674.422974 436.833649,673.668152 440.463287,672.904907 
	C442.967651,681.575928 445.537018,690.273071 447.985352,699.004089 
	C450.550751,708.152466 452.901215,717.361755 455.528931,726.491699 
	C457.966705,734.961792 456.934296,743.073792 453.478394,750.990540 
	C452.212006,753.891541 451.775757,756.982971 450.960876,759.989380 
	C450.064301,763.297241 451.677917,766.013855 452.295013,769.041748 
	C454.008942,777.451172 458.695465,783.071777 465.357635,788.185486 
	C470.948853,792.477234 473.608185,799.014282 473.087952,806.506104 
	C472.959045,808.362000 472.212463,809.439575 471.000000,810.500000 
"/>
<path fill="none" opacity="1.000000" stroke="#ffffff" stroke-linecap="round" stroke-linejoin="round" stroke-width="4.000000"
	d="
M223.499969,589.500000 
	C222.717606,591.685913 221.935242,593.871887 221.005615,596.469177 
	C223.738388,600.032104 228.009445,598.694092 231.483841,598.340942 
	C238.266037,597.651733 245.093674,596.784912 251.523987,594.056519 
	C255.129395,592.526672 258.485657,594.291992 260.386871,597.077209 
	C264.242950,602.726196 268.601257,608.012634 272.106262,613.937134 
	C274.615875,618.179077 278.361664,621.554749 281.859039,625.137573 
	C299.030121,642.728088 314.846436,661.549194 330.530762,680.474487 
	C335.500427,686.471069 340.190186,692.973450 346.192444,697.758606 
	C351.515533,702.002197 355.431000,707.234436 360.014343,711.986145 
	C362.380188,714.438904 364.517944,717.046265 364.953400,720.505859 
	C365.386047,723.943726 368.318695,725.666199 370.147614,727.877930 
	C394.487610,757.312683 417.747467,787.602173 441.505096,817.495972 
	C442.214844,818.389038 442.655029,819.337219 442.500000,820.500000 
"/>
<path fill="none" opacity="1.000000" stroke="#ffffff" stroke-linecap="round" stroke-linejoin="round" stroke-width="4.000000"
	d="
M232.000000,587.000000 
	C227.991196,590.174500 224.138382,590.693787 219.561356,587.414368 
	C212.173889,582.121155 204.620453,582.686340 197.023926,586.053955 
	C180.544571,593.359314 163.360489,598.042847 145.487381,599.877136 
	C138.230484,600.621826 130.832748,600.051941 123.500351,599.969055 
	C121.244629,599.943542 119.470451,598.404236 117.500000,597.500000 
"/>
<path fill="none" opacity="1.000000" stroke="#ffffff" stroke-linecap="round" stroke-linejoin="round" stroke-width="5.000000"
	d="
M304.500000,829.000000 
	C310.996033,831.198425 317.840027,830.877686 324.509033,831.379944 
	C348.137482,833.159302 371.750458,835.510132 395.500122,835.005310 
	C397.554260,834.961609 399.650543,835.236572 401.500000,834.000000 
"/>
<path fill="none" opacity="1.000000" stroke="#ffffff" stroke-linecap="round" stroke-linejoin="round" stroke-width="4.000000"
	d="
M305.500000,955.000000 
	C304.361847,947.802979 305.956726,940.669861 306.117737,933.502625 
	C306.275238,926.493469 307.397278,919.505981 308.093689,912.531250 
	C302.473419,910.657532 299.935791,911.973816 297.543549,918.515930 
	C295.499573,924.105591 293.891266,929.852844 291.986633,935.495483 
	C289.046173,944.206970 286.618317,953.182922 284.803253,962.062012 
	C279.811066,986.482605 274.907837,1010.996277 273.486420,1035.999268 
	C273.249268,1040.171265 272.833344,1044.333374 272.500000,1048.500000 
"/>
<path fill="none" opacity="1.000000" stroke="#ffffff" stroke-linecap="round" stroke-linejoin="round" stroke-width="4.000000"
	d="
M365.000000,717.500000 
	C367.974060,716.996887 369.350464,719.317871 370.981995,721.017273 
	C383.360962,733.911560 396.747406,745.512756 411.946014,755.085754 
	C424.496918,762.990967 438.108643,768.797852 451.024353,775.956055 
	C451.668121,776.312866 452.666656,777.235352 453.500000,776.000000 
"/>
<path fill="none" opacity="1.000000" stroke="#ffffff" stroke-linecap="round" stroke-linejoin="round" stroke-width="4.000000"
	d="
M519.000000,839.000000 
	C522.309326,838.815857 524.593445,840.382629 526.536194,842.972839 
	C529.361755,846.740051 534.190308,847.030884 538.070374,848.849854 
	C547.275757,853.165222 556.495300,857.389587 564.992676,863.011047 
	C574.466675,869.278503 577.766174,878.769287 578.475098,889.501648 
	C578.738770,893.493835 578.369019,897.498230 578.939392,901.508606 
	C579.482727,905.329163 577.738403,908.657227 576.052673,912.026367 
	C572.685181,918.757080 572.948364,926.483765 570.529968,933.510315 
	C569.122742,937.599060 566.812073,941.454041 567.000000,946.000000 
"/>
<path fill="none" opacity="1.000000" stroke="#ffffff" stroke-linecap="round" stroke-linejoin="round" stroke-width="4.000000"
	d="
M554.500000,664.000000 
	C551.979065,660.096558 547.519470,660.951416 543.967224,660.144409 
	C529.962280,656.962769 516.056641,652.710083 501.502869,653.105103 
	C495.471771,653.268860 489.045715,652.937012 484.000000,657.500000 
"/>
<path fill="none" opacity="1.000000" stroke="#ffffff" stroke-linecap="round" stroke-linejoin="round" stroke-width="4.000000"
	d="
M458.500000,880.500000 
	C450.724609,883.127625 444.739136,888.649780 438.596497,893.619263 
	C425.617767,904.119263 411.290771,912.094177 395.979156,918.449768 
	C393.125031,919.634521 390.044983,920.563293 386.989777,920.909668 
	C382.055267,921.469055 378.118774,917.669006 377.567932,911.993408 
	C377.338196,909.626526 377.297333,907.237427 376.473206,905.009888 
	C374.692474,900.196777 371.141022,899.103516 367.002869,902.004089 
	C361.541473,905.832275 356.945190,910.734375 351.092377,914.157959 
	C348.217499,915.839539 344.921661,916.890747 342.407715,919.407837 
	C340.804901,921.012451 338.764374,919.660706 336.979034,918.533203 
	C331.034393,914.778931 325.008423,911.152710 318.986145,907.523010 
	C318.423431,907.183899 317.666656,907.166687 317.000000,907.000061 
"/>
<path fill="none" opacity="1.000000" stroke="#ffffff" stroke-linecap="round" stroke-linejoin="round" stroke-width="4.000000"
	d="
M378.500000,516.000000 
	C382.326233,519.344055 386.058899,517.669861 389.447144,515.420410 
	C391.564453,514.014832 393.321106,511.961792 394.972260,509.976929 
	C400.907471,502.842133 399.561798,496.071869 390.932953,493.201508 
	C386.360962,491.680664 384.567780,488.949493 382.931183,485.028717 
	C379.956360,477.902222 375.422424,476.750671 368.469940,480.443420 
	C364.131561,482.747711 359.249298,484.087372 355.075104,486.623627 
	C351.383209,488.866791 348.156403,491.985657 345.035339,495.036133 
	C337.602844,502.300568 329.877716,509.227295 322.040863,516.046936 
	C319.461914,518.291199 316.682800,520.533936 315.500000,524.000000 
"/>
<path fill="none" opacity="1.000000" stroke="#ffffff" stroke-linecap="round" stroke-linejoin="round" stroke-width="4.000000"
	d="
M688.500000,609.000000 
	C685.106445,603.322632 678.838562,602.201233 673.451843,600.124878 
	C658.256287,594.267578 642.865417,588.906616 627.461609,583.611633 
	C625.407410,582.905518 622.833313,582.211731 620.500000,583.500000 
"/>
<path fill="none" opacity="1.000000" stroke="#ffffff" stroke-linecap="round" stroke-linejoin="round" stroke-width="4.000000"
	d="
M693.000000,618.500000 
	C690.719299,623.012146 685.798767,623.343201 681.940247,624.846680 
	C668.930481,629.916016 655.512878,633.951599 642.567444,639.167480 
	C636.462280,641.627319 631.953186,640.614197 627.500000,636.500000 
"/>
<path fill="none" opacity="1.000000" stroke="#ffffff" stroke-linecap="round" stroke-linejoin="round" stroke-width="4.000000"
	d="
M311.000000,614.000000 
	C310.203339,617.641785 312.607330,619.910950 314.469879,622.521484 
	C324.657928,636.801331 338.350708,644.202271 355.999969,643.997742 
	C360.388306,643.946899 363.898041,642.477417 365.500000,638.000000 
"/>
<path fill="none" opacity="1.000000" stroke="#ffffff" stroke-linecap="round" stroke-linejoin="round" stroke-width="4.000000"
	d="
M417.000000,836.000000 
	C419.173706,839.596252 423.180908,839.402954 426.516205,840.448303 
	C432.763092,842.406067 439.057678,844.039246 445.044037,846.908081 
	C456.371063,852.336304 462.570709,860.556824 461.553772,873.504211 
	C461.477753,874.472046 462.166656,875.500000 462.500000,876.500000 
"/>
<path fill="none" opacity="1.000000" stroke="#ffffff" stroke-linecap="round" stroke-linejoin="round" stroke-width="4.000000"
	d="
M314.000000,526.000000 
	C315.268066,527.810120 314.005920,529.420654 313.466492,530.988464 
	C307.379059,548.680786 309.482300,565.652527 318.047180,581.975220 
	C320.568909,586.781067 324.997253,588.348999 330.496979,586.987854 
	C335.290802,585.801392 339.836731,587.147400 344.538635,587.562744 
	C352.946320,588.305420 361.381348,591.692200 370.000000,589.000000 
"/>
<path fill="none" opacity="1.000000" stroke="#ffffff" stroke-linecap="round" stroke-linejoin="round" stroke-width="7.000000"
	d="
M382.500000,527.500000 
	C383.430786,532.702087 382.130310,537.838013 381.900940,542.995605 
	C381.402832,554.194458 383.783112,564.356506 390.449829,573.536438 
	C394.380310,578.948608 395.703583,585.718689 399.000000,591.500000 
"/>
<path fill="none" opacity="1.000000" stroke="#ffffff" stroke-linecap="round" stroke-linejoin="round" stroke-width="4.000000"
	d="
M124.000000,600.500000 
	C127.173187,605.624512 132.822754,607.401489 137.494293,610.508606 
	C149.148178,618.259766 161.458496,624.834656 174.002563,630.994812 
	C175.803650,631.879272 177.517502,632.815857 178.000000,635.000000 
"/>
<path fill="none" opacity="1.000000" stroke="#ffffff" stroke-linecap="round" stroke-linejoin="round" stroke-width="8.000000"
	d="
M692.500000,610.500000 
	C691.666687,610.166687 690.733459,609.399902 690.015076,609.565430 
	C680.030029,611.866272 669.991150,609.274353 659.999207,609.988770 
	C658.838440,610.071777 657.532410,609.657288 656.520996,610.053589 
	C647.438965,613.611511 638.179199,611.020569 629.000122,610.978760 
	C628.499329,610.976501 628.000000,610.666626 627.500000,610.500000 
"/>
<path fill="none" opacity="1.000000" stroke="#ffffff" stroke-linecap="round" stroke-linejoin="round" stroke-width="4.000000"
	d="
M180.000000,1061.000000 
	C182.309006,1067.466797 181.452698,1074.440430 183.385941,1081.033447 
	C185.246552,1087.378784 185.908905,1094.067383 187.584198,1100.478027 
	C188.851105,1105.326050 189.840469,1110.753540 196.488541,1111.590942 
	C197.459885,1111.713379 199.226425,1112.612061 198.928711,1113.984497 
	C197.582489,1120.190552 204.466385,1122.590210 205.276428,1127.958252 
	C205.491699,1129.384888 208.417023,1131.165039 211.524918,1130.650513 
	C215.770859,1129.947510 218.261063,1127.632812 219.391434,1123.966553 
	C220.172714,1121.432617 219.629044,1118.911011 217.047867,1116.937378 
	C211.630844,1112.795654 205.860779,1111.923218 199.500000,1114.000000 
"/>
<path fill="none" opacity="1.000000" stroke="#ffffff" stroke-linecap="round" stroke-linejoin="round" stroke-width="4.000000"
	d="
M448.500000,921.000000 
	C444.727539,928.647766 438.203339,934.006958 432.421722,939.923523 
	C428.851166,943.577454 424.871582,946.891357 420.023163,949.051941 
	C412.044342,952.607483 405.642914,950.458801 402.044525,942.479919 
	C401.270447,940.763428 400.659546,939.060303 398.652374,937.612488 
	C389.650360,946.119324 380.489532,955.044312 367.000000,945.500000 
"/>
<path fill="none" opacity="1.000000" stroke="#ffffff" stroke-linecap="round" stroke-linejoin="round" stroke-width="4.000000"
	d="
M527.500000,845.000000 
	C522.929932,856.442688 518.621826,868.019104 511.968323,878.479858 
	C508.819458,883.430481 505.333344,888.166687 502.000000,893.000000 
"/>
<path fill="none" opacity="1.000000" stroke="#ffffff" stroke-linecap="round" stroke-linejoin="round" stroke-width="4.000000"
	d="
M342.500000,920.500000 
	C348.725677,925.299072 356.201294,927.768799 363.034943,931.434875 
	C364.770569,932.365967 366.633331,933.000000 368.698486,935.266907 
	C357.074005,946.464172 343.616516,953.546143 327.641296,955.971802 
	C326.172455,950.986328 326.468048,947.605896 331.390411,944.807251 
	C335.923981,942.229675 340.522186,940.541321 345.500000,939.500000 
"/>
<path fill="none" opacity="1.000000" stroke="#ffffff" stroke-linecap="round" stroke-linejoin="round" stroke-width="4.000000"
	d="
M404.000000,594.500000 
	C403.750336,600.284851 407.887146,604.644348 409.031433,609.993286 
	C409.880798,613.963806 411.501526,617.737732 410.548187,622.010742 
	C408.958893,629.134155 404.796082,632.133728 397.500000,631.000000 
"/>
<path fill="none" opacity="1.000000" stroke="#ffffff" stroke-linecap="round" stroke-linejoin="round" stroke-width="4.000000"
	d="
M393.000000,825.000000 
	C398.898468,833.474915 409.737549,837.128479 419.034058,834.626587 
	C424.682587,833.106506 430.644806,832.571777 436.506836,832.081848 
	C441.289185,831.682129 445.901672,830.716064 450.786011,829.368530 
	C457.659760,838.205933 464.595154,847.091187 471.492035,856.006165 
	C474.041382,859.301331 476.345306,862.799744 479.056458,865.951416 
	C480.756927,867.928223 482.381073,869.629089 482.613983,872.490723 
	C482.755554,874.230469 484.172821,876.199280 486.011902,876.376282 
	C488.396149,876.605713 489.038971,878.990601 491.000000,879.500000 
"/>
<path fill="none" opacity="1.000000" stroke="#ffffff" stroke-linecap="round" stroke-linejoin="round" stroke-width="4.000000"
	d="
M253.000000,577.500000 
	C257.940979,580.592590 263.671844,579.602234 269.018616,580.370361 
	C277.113983,581.533386 285.328278,581.909302 293.502991,582.455139 
	C296.049988,582.625122 297.630219,582.922180 298.681580,585.936646 
	C299.988770,589.684448 303.844788,591.782104 307.102386,593.837769 
	C308.373810,594.640076 309.268005,595.758118 310.500000,596.500000 
"/>
<path fill="none" opacity="1.000000" stroke="#ffffff" stroke-linecap="round" stroke-linejoin="round" stroke-width="4.000000"
	d="
M459.500000,785.000000 
	C459.635345,793.930420 463.625061,801.626038 468.799103,808.266968 
	C470.876007,810.932617 470.481720,814.839722 473.972076,816.556763 
	C478.585480,818.826233 482.827087,821.912048 487.545288,823.892090 
	C493.017548,826.188660 498.775146,827.881775 504.517639,829.434692 
	C509.482361,830.777283 513.696655,833.061096 517.000000,837.000000 
"/>
<path fill="none" opacity="1.000000" stroke="#ffffff" stroke-linecap="round" stroke-linejoin="round" stroke-width="5.000000"
	d="
M485.000000,876.500000 
	C483.967377,881.539978 485.382782,886.536621 485.749847,891.481445 
	C486.157410,896.971680 485.260742,902.525635 486.747345,908.067749 
	C487.305817,910.149719 484.915009,912.970093 484.022308,915.507874 
	C482.998993,918.416931 480.460266,918.715759 478.022858,919.565552 
	C473.772888,921.047180 469.620117,922.417603 465.004761,922.612549 
	C460.436340,922.805481 456.753387,921.012207 453.000000,919.000000 
"/>
<path fill="none" opacity="1.000000" stroke="#ffffff" stroke-linecap="round" stroke-linejoin="round" stroke-width="4.000000"
	d="
M517.500000,840.000000 
	C512.316772,849.654236 505.419678,857.993103 498.091248,866.082642 
	C495.001831,869.493042 493.835327,874.250061 491.939850,878.473022 
	C491.058105,880.437561 491.817719,881.966553 492.537872,883.481995 
	C495.556458,889.834412 499.461639,895.596985 503.942017,901.047668 
	C508.169647,906.190857 511.921692,912.027039 516.329651,916.688232 
	C524.800537,925.645935 532.645752,935.054382 540.549561,944.458313 
	C540.825562,944.786743 541.833313,944.500000 542.500000,944.500000 
"/>
<path fill="none" opacity="1.000000" stroke="#ffffff" stroke-linecap="round" stroke-linejoin="round" stroke-width="4.000000"
	d="
M654.500000,613.000000 
	C658.737976,616.233887 663.848389,614.672852 668.518921,615.373779 
	C676.624695,616.590454 684.978027,615.534607 693.027710,617.905884 
	C694.669495,618.389526 696.666687,617.666687 698.500000,617.500000 
"/>
<path fill="none" opacity="1.000000" stroke="#ffffff" stroke-linecap="round" stroke-linejoin="round" stroke-width="4.000000"
	d="
M477.500000,657.000000 
	C470.328583,662.080750 461.654358,663.926636 453.949738,667.902588 
	C449.912201,669.986145 445.355621,671.063904 440.812378,672.674194 
	C438.687073,668.625977 437.823425,664.236084 436.439270,660.019958 
	C435.420288,656.916138 434.936584,653.606384 432.571289,650.936829 
	C430.769012,648.902771 431.614197,646.029236 431.500000,643.500000 
"/>
<path fill="none" opacity="1.000000" stroke="#ffffff" stroke-linecap="round" stroke-linejoin="round" stroke-width="4.000000"
	d="
M482.000000,873.000000 
	C475.525116,871.724426 469.817322,874.246277 463.976532,876.437439 
	C460.732208,877.654541 459.770782,879.383606 459.259674,882.965698 
	C458.360779,889.265503 454.480804,894.565186 450.470978,899.476318 
	C445.761566,905.244141 440.837372,910.836792 435.998444,916.498657 
	C433.047058,919.951843 430.477905,920.350708 426.500000,918.000000 
"/>
<path fill="none" opacity="1.000000" stroke="#ffffff" stroke-linecap="round" stroke-linejoin="round" stroke-width="4.000000"
	d="
M572.000000,922.000000 
	C570.144653,922.303955 568.834595,923.664795 568.067017,925.037476 
	C561.663818,936.487549 551.511047,944.945923 543.961792,955.472595 
	C542.704224,957.226318 540.938354,958.609192 538.500000,958.500000 
"/>
<path fill="none" opacity="1.000000" stroke="#ffffff" stroke-linecap="round" stroke-linejoin="round" stroke-width="4.000000"
	d="
M176.000000,1132.500000 
	C179.117294,1126.441772 178.587692,1121.739258 174.522217,1117.975952 
	C173.198822,1116.750854 172.059189,1116.819336 170.476715,1117.440674 
	C168.543060,1118.200073 168.821030,1119.705444 169.056076,1120.989746 
	C169.530350,1123.581177 169.525284,1126.424561 171.525772,1128.474854 
	C172.717239,1129.695923 172.434967,1131.099609 172.500000,1132.500000 
"/>
<path fill="none" opacity="1.000000" stroke="#ffffff" stroke-linecap="round" stroke-linejoin="round" stroke-width="4.000000"
	d="
M304.000000,886.500000 
	C304.490967,892.059082 309.294952,894.867676 312.073914,898.949707 
	C314.401703,902.368958 316.385406,905.360474 316.235840,910.007568 
	C316.071136,915.125549 318.779785,919.802307 321.891083,924.079224 
	C322.836426,925.378906 323.773895,925.114441 324.481598,924.929565 
	C328.986237,923.752747 333.826752,923.382935 337.500000,920.000000 
"/>
<path fill="none" opacity="1.000000" stroke="#ffffff" stroke-linecap="round" stroke-linejoin="round" stroke-width="4.000000"
	d="
M587.500000,660.000000 
	C582.997498,665.157410 576.525085,663.141418 570.973633,664.382019 
	C568.293213,664.980957 565.409058,664.996460 562.480713,664.676697 
	C558.873779,664.282715 555.219177,664.461792 551.414001,665.745056 
	C547.068909,667.210510 542.111816,665.700134 537.511780,664.929810 
	C530.685730,663.786682 523.846191,664.063354 517.000000,664.001770 
	C505.271423,663.896240 493.985748,662.418640 482.920441,657.686035 
	C468.214081,651.396057 459.371002,641.141357 456.469208,625.505737 
	C455.430817,619.910645 456.249634,614.897156 460.000000,610.500000 
"/>
<path fill="none" opacity="1.000000" stroke="#ffffff" stroke-linecap="round" stroke-linejoin="round" stroke-width="4.000000"
	d="
M581.500000,641.500000 
	C582.666626,645.166687 583.664490,648.897705 585.034119,652.487000 
	C588.176514,660.722168 588.584717,660.903992 597.500244,660.505981 
	C598.498291,660.461426 599.500000,660.500000 600.500000,660.500000 
"/>
<path fill="none" opacity="1.000000" stroke="#ffffff" stroke-linecap="round" stroke-linejoin="round" stroke-width="4.000000"
	d="
M375.000000,636.000000 
	C379.856018,631.064819 380.462952,627.069214 376.424927,624.624023 
	C375.384277,623.993774 373.936615,622.514832 371.937408,623.910339 
	C370.012939,625.253601 370.165466,627.084534 370.617035,628.461609 
	C371.490265,631.124695 372.022400,634.110291 374.500000,636.000000 
"/>
<path fill="none" opacity="1.000000" stroke="#ffffff" stroke-linecap="round" stroke-linejoin="round" stroke-width="8.000000"
	d="
M516.000000,917.500000 
	C513.335999,918.886353 510.583832,919.543457 507.500854,919.577332 
	C501.087585,919.647705 495.209564,922.191101 489.250000,924.250000 
"/>
<path fill="none" opacity="1.000000" stroke="#ffffff" stroke-linecap="round" stroke-linejoin="round" stroke-width="4.000000"
	d="
M476.000000,818.500000 
	C476.047241,823.249695 473.291412,825.422852 469.010468,826.540161 
	C463.530884,827.970276 457.760101,828.177063 452.500000,830.500000 
"/>
<path fill="none" opacity="1.000000" stroke="#ffffff" stroke-linecap="round" stroke-linejoin="round" stroke-width="4.000000"
	d="
M359.000000,483.000000 
	C350.411652,474.457642 337.629608,477.214569 333.500000,488.500000 
"/>
<path fill="none" opacity="1.000000" stroke="#ffffff" stroke-linecap="round" stroke-linejoin="round" stroke-width="4.000000"
	d="
M350.500000,587.000000 
	C355.451904,580.715637 364.815887,580.692688 369.825043,587.626404 
	C371.799927,590.359985 373.759033,590.810181 376.498291,591.022034 
	C382.004028,591.447815 387.506165,591.944641 392.993713,592.556335 
	C393.871857,592.654236 394.666656,593.500000 395.500000,594.000000 
"/>
<path fill="none" opacity="1.000000" stroke="#ffffff" stroke-linecap="round" stroke-linejoin="round" stroke-width="4.000000"
	d="
M375.500000,514.500000 
	C376.498901,514.500000 377.497803,514.500000 378.738831,514.500000 
	C374.314758,523.762268 367.682556,523.932373 359.000000,515.500000 
	C346.502563,525.825317 344.556610,526.230713 335.000671,520.500427 
	C332.222382,522.012024 332.969910,525.594971 330.579773,527.595337 
	C326.627045,530.903503 324.187805,531.019409 321.000000,527.000000 
	C318.246521,523.528198 314.692963,523.426086 310.018005,527.023376 
	C302.614166,532.720520 295.801392,539.107910 289.000000,545.500000 
"/>
<path fill="none" opacity="1.000000" stroke="#ffffff" stroke-linecap="round" stroke-linejoin="round" stroke-width="4.000000"
	d="
M633.000000,612.500000 
	C632.961060,614.328369 633.837524,615.881836 634.338074,617.548645 
	C636.349243,624.245605 638.087280,631.173584 632.000000,637.000000 
"/>
<path fill="none" opacity="1.000000" stroke="#ffffff" stroke-linecap="round" stroke-linejoin="round" stroke-width="4.000000"
	d="
M307.500000,605.000000 
	C305.354614,604.221802 304.416809,602.235168 303.558472,600.471558 
	C299.947388,593.051941 294.161194,589.992249 285.991333,590.640686 
	C284.049835,590.794800 281.996552,589.594849 280.000641,588.997864 
	C274.746460,587.426086 269.736938,587.911926 265.000000,590.750000 
"/>
<path fill="none" opacity="1.000000" stroke="#ffffff" stroke-linecap="round" stroke-linejoin="round" stroke-width="4.000000"
	d="
M394.500000,584.000000 
	C392.039703,585.610718 389.995026,584.623413 387.446503,583.638428 
	C380.163361,580.823669 375.856384,580.595947 371.000000,587.000000 
"/>
<path fill="none" opacity="1.000000" stroke="#ffffff" stroke-linecap="round" stroke-linejoin="round" stroke-width="4.000000"
	d="
M281.500000,550.500000 
	C280.601837,555.268494 275.559509,555.827393 272.854736,558.870911 
	C269.278259,562.895386 264.581207,565.905457 260.546936,569.551941 
	C259.158386,570.807007 257.696167,571.274719 256.000000,571.500000 
"/>
<path fill="none" opacity="1.000000" stroke="#ffffff" stroke-linecap="round" stroke-linejoin="round" stroke-width="4.000000"
	d="
M287.000000,511.000000 
	C284.933594,510.326080 283.521332,507.763184 281.016296,508.551758 
	C278.573853,509.320648 275.701752,509.556519 274.490601,512.496155 
	C273.181641,515.673157 274.332733,518.530396 276.081635,520.940796 
	C277.793152,523.299683 280.173370,525.173279 282.013428,527.013367 
	C282.062653,529.912964 280.222504,531.375122 278.945709,532.956177 
	C271.082825,542.692383 273.936890,545.720825 281.375916,549.929810 
	C283.638397,549.014465 285.819214,548.132263 288.000000,547.250000 
"/>
<path fill="none" opacity="1.000000" stroke="#ffffff" stroke-linecap="round" stroke-linejoin="round" stroke-width="4.000000"
	d="
M311.000000,491.500000 
	C310.666656,491.500000 310.250336,491.631500 310.011963,491.481049 
	C301.023865,485.808105 298.023438,486.714478 293.500000,496.500000 
"/>
<path fill="none" opacity="1.000000" stroke="#ffffff" stroke-linecap="round" stroke-linejoin="round" stroke-width="4.000000"
	d="
M326.000000,949.500000 
	C322.432098,948.260742 319.421783,950.509583 316.569153,951.669983 
	C308.249695,955.054199 299.557343,957.015259 291.003723,959.512695 
	C289.643860,959.909729 288.333344,960.511841 287.000000,959.500000 
"/>
<path fill="none" opacity="1.000000" stroke="#ffffff" stroke-linecap="round" stroke-linejoin="round" stroke-width="4.000000"
	d="
M296.500000,502.500000 
	C294.981659,499.888702 294.883331,496.174469 290.502441,495.952148 
	C282.688171,495.555603 280.915070,498.548584 281.621735,505.487610 
	C281.709290,506.347351 281.786407,507.341858 282.000000,508.250000 
"/>
<path fill="none" opacity="1.000000" stroke="#ffffff" stroke-linecap="round" stroke-linejoin="round" stroke-width="5.000000"
	d="
M602.500000,661.500000 
	C608.154541,662.269775 613.754822,663.607239 619.499390,663.472656 
	C624.370972,663.358582 628.793579,658.161377 627.304504,653.563293 
	C626.533875,651.183716 627.062500,649.889893 627.912537,647.961426 
	C629.093811,645.281494 629.666687,642.333313 630.500000,639.500000 
"/>
<path fill="none" opacity="1.000000" stroke="#ffffff" stroke-linecap="round" stroke-linejoin="round" stroke-width="5.000000"
	d="
M556.750000,1122.500000 
	C557.762329,1124.790894 560.334229,1124.339600 562.022461,1125.466309 
	C562.822327,1126.000122 563.949219,1125.936523 564.513062,1126.993042 
	C568.468933,1134.405518 574.909180,1133.460327 581.506287,1132.029053 
	C581.790100,1131.967529 582.166626,1132.333374 582.500000,1132.500000 
"/>
<path fill="none" opacity="1.000000" stroke="#ffffff" stroke-linecap="round" stroke-linejoin="round" stroke-width="4.000000"
	d="
M581.000000,1132.000000 
	C579.285339,1125.332153 571.578064,1122.529541 564.500000,1126.000000 
"/>
<path fill="none" opacity="1.000000" stroke="#ffffff" stroke-linecap="round" stroke-linejoin="round" stroke-width="5.000000"
	d="
M318.000000,584.250000 
	C312.966156,586.197876 308.028656,583.553040 302.990417,583.817993 
	C301.559479,583.893188 300.245270,583.628723 299.000000,584.500000 
"/>
<path fill="none" opacity="1.000000" stroke="#ffffff" stroke-linecap="round" stroke-linejoin="round" stroke-width="4.000000"
	d="
M561.500000,952.500000 
	C557.463135,952.056030 554.522949,954.899292 551.011108,956.034424 
	C548.619690,956.807373 546.333313,957.047546 544.000000,956.000000 
"/>
<path fill="none" opacity="1.000000" stroke="#ffffff" stroke-linecap="round" stroke-linejoin="round" stroke-width="6.000000"
	d="
M238.000000,575.250000 
	C240.658966,577.015442 244.189331,577.038025 246.403320,579.394287 
	C249.470001,577.877869 253.352219,577.676392 255.003632,574.001648 
	C256.019745,571.740601 255.829529,569.686096 253.483017,568.534607 
	C248.128998,565.907288 243.362656,562.108032 237.500000,560.500000 
"/>
<path fill="none" opacity="1.000000" stroke="#ffffff" stroke-linecap="round" stroke-linejoin="round" stroke-width="4.000000"
	d="
M280.500000,554.000000 
	C283.283264,558.035461 284.098541,563.150574 288.894989,566.166992 
	C293.274536,568.921326 297.603668,569.862122 302.500000,569.500000 
"/>
<path fill="none" opacity="1.000000" stroke="#ffffff" stroke-linecap="round" stroke-linejoin="round" stroke-width="4.000000"
	d="
M390.500000,618.500000 
	C391.079651,621.820557 393.488800,624.174316 395.021820,626.988098 
	C398.865784,634.043518 395.267761,640.551758 387.002411,641.520569 
	C381.694366,642.142761 377.474457,640.542847 374.500000,636.000000 
"/>
<path fill="none" opacity="1.000000" stroke="#ffffff" stroke-linecap="round" stroke-linejoin="round" stroke-width="4.000000"
	d="
M333.000000,486.500000 
	C331.333313,485.166687 329.846863,483.431396 327.961395,482.586090 
	C324.360199,480.971558 320.389191,480.094513 317.044312,483.050140 
	C313.538544,486.148010 310.213593,489.565308 312.478760,495.008850 
	C312.798950,495.778290 312.833344,496.666656 313.000000,497.500000 
"/>
<path fill="none" opacity="1.000000" stroke="#ffffff" stroke-linecap="round" stroke-linejoin="round" stroke-width="5.000000"
	d="
M606.500000,640.000000 
	C601.913818,641.368896 601.913818,641.368896 599.000000,633.750000 
	C592.720886,635.725037 592.314880,638.769958 597.500000,645.000000 
	C595.216736,647.848877 595.253296,650.359192 598.487915,652.518127 
	C599.564453,653.236755 600.500000,654.166687 601.500000,655.000000 
"/>
<path fill="none" opacity="1.000000" stroke="#ffffff" stroke-linecap="round" stroke-linejoin="round" stroke-width="4.000000"
	d="
M204.500000,1129.000000 
	C199.587753,1132.210327 195.245544,1130.290161 191.000000,1127.500000 
"/>
<path fill="none" opacity="1.000000" stroke="#ffffff" stroke-linecap="round" stroke-linejoin="round" stroke-width="5.000000"
	d="
M436.000000,917.500000 
	C440.031189,920.609680 445.066711,919.418640 449.554657,920.176086 
	C452.487518,920.671082 454.592560,917.089905 454.500000,913.500000 
"/>
<path fill="none" opacity="1.000000" stroke="#ffffff" stroke-linecap="round" stroke-linejoin="round" stroke-width="4.000000"
	d="
M499.000000,898.000000 
	C496.881439,899.214783 495.152191,900.579468 493.845642,902.913574 
	C492.562927,905.205139 490.362396,907.237793 487.500000,908.000000 
"/>
<path fill="none" opacity="1.000000" stroke="#ffffff" stroke-linecap="round" stroke-linejoin="round" stroke-width="4.000000"
	d="
M307.000000,815.000000 
	C305.406799,818.851685 306.630920,823.407715 304.000000,827.000000 
"/>
<path fill="none" opacity="1.000000" stroke="#ffffff" stroke-linecap="round" stroke-linejoin="round" stroke-width="4.000000"
	d="
M448.500000,599.500000 
	C451.288727,604.044617 456.334991,606.331665 459.500000,610.500000 
"/>
<path fill="none" opacity="1.000000" stroke="#ffffff" stroke-linecap="round" stroke-linejoin="round" stroke-width="6.000000"
	d="
M231.500000,583.500000 
	C231.247299,586.085999 232.828186,586.785156 234.998337,587.015625 
	C237.505478,587.281738 240.024811,588.066162 242.494583,587.912842 
	C246.973145,587.634766 250.213196,589.240295 252.500000,593.000000 
"/>
<path fill="none" opacity="1.000000" stroke="#ffffff" stroke-linecap="round" stroke-linejoin="round" stroke-width="4.000000"
	d="
M292.500000,569.000000 
	C290.500244,571.333313 291.607544,573.743774 292.554565,575.976868 
	C293.389099,577.944580 294.243652,579.863220 294.500000,582.000000 
"/>
<path fill="none" opacity="1.000000" stroke="#ffffff" stroke-linecap="round" stroke-linejoin="round" stroke-width="4.000000"
	d="
M616.500000,625.500000 
	C618.386719,618.787964 618.116455,617.977051 613.000000,615.000000 
"/>
<path fill="none" opacity="1.000000" stroke="#ffffff" stroke-linecap="round" stroke-linejoin="round" stroke-width="4.000000"
	d="
M186.500000,1115.500000 
	C186.745056,1116.486938 186.005722,1117.594849 186.973007,1118.527954 
	C187.309174,1118.852295 187.281647,1119.524780 187.507629,1119.996338 
	C191.897522,1129.156250 191.744232,1127.494873 185.000000,1133.500000 
"/>
<path fill="none" opacity="1.000000" stroke="#ffffff" stroke-linecap="round" stroke-linejoin="round" stroke-width="5.000000"
	d="
M374.000000,636.000000 
	C368.926453,639.110962 366.928741,638.871216 361.500000,634.500000 
"/>
<path fill="none" opacity="1.000000" stroke="#ffffff" stroke-linecap="round" stroke-linejoin="round" stroke-width="4.000000"
	d="
M626.000000,628.000000 
	C624.269348,624.835999 620.678345,624.979187 618.000000,623.500000 
"/>
</svg>
