<svg width="70" height="32" viewBox="0 0 70 32" fill="none" xmlns="http://www.w3.org/2000/svg">
<path d="M1.71953 2.46344C1.71953 10.8142 1.22957 19.3569 1.71953 27.6861C1.78331 28.7705 10.3228 28.1712 11.9056 28.1712" stroke="white" stroke-width="3" stroke-linecap="round"/>
<path d="M19.6664 22.3506V30.1114" stroke="white" stroke-width="3" stroke-linecap="round"/>
<path d="M18.6963 10.2243C19.1546 10.6316 22.3612 11.0811 22.3612 10.1165C22.3612 9.43021 18.2795 9.25418 18.6963 9.25418" stroke="white" stroke-width="3" stroke-linecap="round"/>
<path d="M29.3675 29.6263C29.3675 21.8206 29.3675 14.0149 29.3675 6.20913C29.3675 5.236 30.1721 7.98148 30.5532 8.87691C32.6517 13.8085 35.7219 19.1035 38.7721 23.5093C39.206 24.1361 39.8415 25.7077 40.0117 26.4735C40.4797 28.5798 41.0013 23.9553 41.0087 23.4824C41.1013 17.5569 43.919 12.2148 43.919 6.34387" stroke="white" stroke-width="3" stroke-linecap="round"/>
<path d="M52.1649 8.28406C52.1649 12.398 52.1649 16.512 52.1649 20.6259C52.1649 21.5269 51.7518 27.1651 52.65 26.716" stroke="white" stroke-width="3" stroke-linecap="round"/>
<path d="M62.351 9.73923C60.2693 10.4827 56.308 14.0105 55.2908 16.0449C54.9498 16.727 56.866 16.2147 57.5005 16.6377C60.8734 18.8864 62.9354 23.6135 65.7464 26.5005C66.6852 27.4647 67.8181 28.6151 68.1716 27.2011" stroke="white" stroke-width="3" stroke-linecap="round"/>
</svg>
