<svg version="1.1" id="Layer_1" xmlns="http://www.w3.org/2000/svg" xmlns:xlink="http://www.w3.org/1999/xlink" x="0px" y="0px"
	 width="100%" viewBox="0 0 320 320" enable-background="new 0 0 320 320" xml:space="preserve">
<path fill="#FFFFFF" opacity="1.000000" stroke="#FFFFFF" 
	d="

M135.865982,236.643890 
	C145.984909,247.975479 156.680740,258.628937 169.569992,266.914795 
	C183.035431,275.571075 196.281128,274.380371 209.631561,266.786316 
	C212.328949,265.251953 213.074371,263.440796 211.474319,260.683685 
	C202.532455,245.275650 193.620987,229.849960 184.697571,214.431198 
	C183.685333,212.682190 182.348740,211.669785 180.181641,212.312378 
	C167.941193,215.941849 158.299835,210.752243 149.839691,202.789017 
	C135.439438,189.234573 126.774185,172.327667 122.962524,153.080078 
	C121.199905,144.179489 120.903336,134.790237 127.378540,127.405411 
	C130.943710,123.339417 131.430237,120.272293 128.105545,116.297920 
	C127.475060,115.544243 127.109489,114.570648 126.610687,113.704857 
	C118.963364,100.431000 111.328018,87.150200 103.650726,73.893700 
	C102.486702,71.883751 101.327744,69.478294 98.285065,71.209625 
	C87.680397,77.243851 78.961418,84.571770 77.116356,97.827690 
	C75.584099,108.836243 77.385811,119.469208 79.955948,129.914474 
	C89.766808,169.786682 109.361176,204.654160 135.865982,236.643890 
M114.456520,80.093773 
	C121.611961,92.469070 128.721008,104.871529 135.946121,117.206024 
	C138.755402,122.001945 141.957596,122.908485 146.803253,120.320015 
	C151.199112,117.971817 155.526901,115.475410 159.747910,112.826416 
	C164.121796,110.081467 165.183350,106.723549 162.621506,102.193275 
	C153.294601,85.699921 143.793549,69.304337 134.257355,52.930584 
	C131.965225,48.994949 128.302673,48.106991 124.360718,50.131805 
	C119.488403,52.634506 114.736259,55.406193 110.109917,58.341747 
	C106.347069,60.729385 105.321236,64.184967 107.593376,68.238106 
	C109.706703,72.007980 111.920944,75.721283 114.456520,80.093773 
M244.831818,248.572037 
	C245.443375,246.712067 245.151230,244.927002 244.202744,243.284882 
	C234.560181,226.590256 224.959579,209.870697 215.185455,193.253281 
	C212.940323,189.436218 209.426331,188.342300 205.337646,190.641418 
	C200.703110,193.247498 196.025970,195.794296 191.528900,198.623642 
	C187.242676,201.320389 186.533340,204.324478 188.825409,208.795029 
	C190.113007,211.306396 191.605362,213.713120 193.014374,216.161865 
	C200.806427,229.703766 208.588226,243.251617 216.404861,256.779297 
	C218.190689,259.869934 220.646149,263.775543 224.339142,262.148254 
	C231.659439,258.922699 239.466675,256.042908 244.831818,248.572037 
z"/>
</svg>
