<svg width="91" height="39" viewBox="0 0 91 39" fill="none" xmlns="http://www.w3.org/2000/svg">
<path d="M2.20458 14.9655C2.20458 15.7334 1.75639 21.0392 2.47405 21.2442C3.80337 21.624 6.36609 21.6088 6.9473 20.3011C7.51717 19.0189 8.0252 14.8289 8.0252 16.232C8.0252 17.1583 7.29404 18.097 6.81257 18.8459C5.71986 20.5457 5.59994 22.0527 5.59994 24.0737C5.59994 27.2195 5.21226 31.7296 6.81257 34.6101C7.94212 36.6433 4.89468 36.8655 3.65973 36.7928C1.98199 36.6941 2.20458 34.2478 2.20458 33.1549C2.20458 30.8429 5.59496 28.7103 7.54014 28.0619" stroke="white" stroke-width="3" stroke-linecap="round"/>
<path d="M15.4968 15C12.1311 15 12.875 15.3993 12.2092 18.3954C11.8128 20.1792 12.1014 22.3707 12.1014 24.189C12.1014 25.5966 12.0881 26.7037 13.8261 25.9137C15.3212 25.2341 17.1213 24.9453 18.4071 23.7309C20.0853 22.146 22.5206 21.8301 21.3174 19.1229C20.6879 17.7066 18.4108 16.7005 17.1945 15.7545C15.8816 14.7334 14.5093 14.91 13.0716 15.4851" stroke="white" stroke-width="3" stroke-linecap="round"/>
<path d="M26.653 16.9402C26.653 20.3006 24.7994 26.7028 29.3208 25.6981C30.3666 25.4656 34.3547 23.7652 34.4138 22.7608C34.4704 21.7983 34.4138 20.8149 34.4138 19.8505C34.4138 19.1472 33.4437 17.3239 33.4437 18.9343C33.4437 20.2048 33.761 27.2758 33.4437 26.6412" stroke="white" stroke-width="3" stroke-linecap="round"/>
<path d="M41.6896 18.3954C41.6896 18.737 41.537 26.4257 42.5519 26.4257C42.889 26.4257 42.1747 23.7199 42.1747 23.5154C42.1747 22.5834 42.2092 21.644 42.1747 20.7128C42.1044 18.8157 40.5152 15.9701 43.6298 15.9701C45.7026 15.9701 47.505 15 49.4504 15" stroke="white" stroke-width="3" stroke-linecap="round"/>
<path d="M58.4706 13.5104C57.3273 13.6247 53.2171 17.2573 54.698 18.7382C55.2235 19.2636 57.1659 18.8134 57.9856 19.2232C58.8163 19.6386 59.6558 19.7616 60.303 20.4089C61.2726 21.3785 61.2726 24.0742 60.303 25.0438C59.7414 25.6055 59.2124 26.1693 58.4706 26.499C57.9902 26.7125 57.4151 26.5729 56.9077 26.6068C54.495 26.7676 51.9562 28.1877 49.7397 29.032" stroke="white" stroke-width="3" stroke-linecap="round"/>
<path d="M64.7762 17.3908C66.5586 17.3908 67.7444 14.9655 65.5038 14.9655C63.3994 14.9655 62.3325 15.731 62.863 18.1184C63.9568 23.0404 68.3676 23.6964 72.5371 23.6964" stroke="white" stroke-width="3" stroke-linecap="round"/>
<path d="M75.4474 7.68976C75.4474 13.2929 74.7526 19.5015 77.8726 24.1815" stroke="white" stroke-width="3" stroke-linecap="round"/>
<path d="M82.2381 16.9057C82.5074 14.2124 84.1366 11.6069 85.1215 9.14487C85.5031 8.19087 87.9157 4.2052 86.8191 3.10867C85.8687 2.15828 83.7309 1.94698 82.8309 2.94699C81.3326 4.61185 83.1977 8.44781 83.9358 10.088C85.5415 13.6563 86.7047 17.7247 87.5467 21.5137C88.1106 24.0513 87.729 27.3606 87.5737 30.0021C87.5382 30.6049 86.2996 30.7572 86.1455 30.2177C85.9097 29.3927 86.1185 28.2082 86.1185 27.3613C86.1185 25.6472 84.5578 24.6258 84.6634 22.7263C84.7436 21.2824 89.9899 20.7861 88.5438 20.7861" stroke="white" stroke-width="3" stroke-linecap="round"/>
</svg>
